<mxfile host="app.diagrams.net" agent="Mozilla/5.0 (Windows NT 10.0; Win64; x64) AppleWebKit/537.36 (KHTML, like Gecko) Chrome/137.0.0.0 Safari/537.36" version="27.1.6">
  <diagram name="Page-1" id="TeQzSw6UrltoazhNfl4t">
    <mxGraphModel dx="1158" dy="633" grid="1" gridSize="10" guides="1" tooltips="1" connect="1" arrows="1" fold="1" page="1" pageScale="1" pageWidth="850" pageHeight="1100" math="0" shadow="0">
      <root>
        <mxCell id="0" />
        <mxCell id="1" parent="0" />
        <mxCell id="RuhV8H8YjiO3MwO7PlEk-4" value="" style="group" vertex="1" connectable="0" parent="1">
          <mxGeometry x="110" y="40" width="170" height="210" as="geometry" />
        </mxCell>
        <mxCell id="RuhV8H8YjiO3MwO7PlEk-1" value="Klijent" style="rounded=0;whiteSpace=wrap;html=1;" vertex="1" parent="RuhV8H8YjiO3MwO7PlEk-4">
          <mxGeometry width="170" height="30" as="geometry" />
        </mxCell>
        <mxCell id="RuhV8H8YjiO3MwO7PlEk-2" value="&lt;div style=&quot;&quot;&gt;&lt;span style=&quot;background-color: transparent; color: light-dark(rgb(0, 0, 0), rgb(255, 255, 255));&quot;&gt;id_klijent&lt;/span&gt;&lt;/div&gt;&lt;div style=&quot;&quot;&gt;ime&amp;nbsp;&lt;/div&gt;&lt;div style=&quot;&quot;&gt;prezime&lt;/div&gt;&lt;div style=&quot;&quot;&gt;email&lt;/div&gt;&lt;div style=&quot;&quot;&gt;broj_telefona&lt;/div&gt;&lt;div style=&quot;&quot;&gt;datum_registracije&lt;/div&gt;&lt;div&gt;&lt;br&gt;&lt;/div&gt;" style="rounded=0;whiteSpace=wrap;html=1;align=center;" vertex="1" parent="RuhV8H8YjiO3MwO7PlEk-4">
          <mxGeometry y="30" width="170" height="120" as="geometry" />
        </mxCell>
        <mxCell id="RuhV8H8YjiO3MwO7PlEk-3" value="rezervirajTermin ()&lt;div&gt;pregledajSvojeTermine ()&lt;/div&gt;" style="rounded=0;whiteSpace=wrap;html=1;align=center;" vertex="1" parent="RuhV8H8YjiO3MwO7PlEk-4">
          <mxGeometry y="150" width="170" height="60" as="geometry" />
        </mxCell>
        <mxCell id="RuhV8H8YjiO3MwO7PlEk-8" value="" style="group" vertex="1" connectable="0" parent="1">
          <mxGeometry x="550" y="40" width="190" height="190" as="geometry" />
        </mxCell>
        <mxCell id="RuhV8H8YjiO3MwO7PlEk-5" value="Zaposlenik" style="rounded=0;whiteSpace=wrap;html=1;" vertex="1" parent="RuhV8H8YjiO3MwO7PlEk-8">
          <mxGeometry width="190" height="30" as="geometry" />
        </mxCell>
        <mxCell id="RuhV8H8YjiO3MwO7PlEk-6" value="&lt;div style=&quot;&quot;&gt;&lt;span style=&quot;background-color: transparent; color: light-dark(rgb(0, 0, 0), rgb(255, 255, 255));&quot;&gt;id_zaposlenik&lt;/span&gt;&lt;/div&gt;&lt;div style=&quot;&quot;&gt;ime&lt;/div&gt;&lt;div style=&quot;&quot;&gt;prezime&lt;/div&gt;&lt;div style=&quot;&quot;&gt;uloga&lt;/div&gt;&lt;div style=&quot;&quot;&gt;aktivan&lt;/div&gt;" style="rounded=0;whiteSpace=wrap;html=1;align=center;" vertex="1" parent="RuhV8H8YjiO3MwO7PlEk-8">
          <mxGeometry y="30" width="190" height="100" as="geometry" />
        </mxCell>
        <mxCell id="RuhV8H8YjiO3MwO7PlEk-7" value="pregledajRaspored ()&lt;div&gt;dohvatiKompetencije ()&lt;/div&gt;" style="rounded=0;whiteSpace=wrap;html=1;" vertex="1" parent="RuhV8H8YjiO3MwO7PlEk-8">
          <mxGeometry y="130" width="190" height="60" as="geometry" />
        </mxCell>
        <mxCell id="RuhV8H8YjiO3MwO7PlEk-12" value="" style="group" vertex="1" connectable="0" parent="1">
          <mxGeometry x="190" y="305" width="200" height="210" as="geometry" />
        </mxCell>
        <mxCell id="RuhV8H8YjiO3MwO7PlEk-9" value="Termin" style="rounded=0;whiteSpace=wrap;html=1;" vertex="1" parent="RuhV8H8YjiO3MwO7PlEk-12">
          <mxGeometry y="10" width="200" height="30" as="geometry" />
        </mxCell>
        <mxCell id="RuhV8H8YjiO3MwO7PlEk-10" value="id_termin&lt;div&gt;datum_vrijeme_pocetka&lt;/div&gt;&lt;div&gt;status&lt;/div&gt;" style="rounded=0;whiteSpace=wrap;html=1;" vertex="1" parent="RuhV8H8YjiO3MwO7PlEk-12">
          <mxGeometry y="40" width="200" height="70" as="geometry" />
        </mxCell>
        <mxCell id="RuhV8H8YjiO3MwO7PlEk-11" value="kreirajTermin ()&lt;div&gt;otkaziTermin ()&lt;/div&gt;&lt;div&gt;promijeniStatus ()&lt;/div&gt;" style="rounded=0;whiteSpace=wrap;html=1;" vertex="1" parent="RuhV8H8YjiO3MwO7PlEk-12">
          <mxGeometry y="110" width="200" height="100" as="geometry" />
        </mxCell>
        <mxCell id="RuhV8H8YjiO3MwO7PlEk-16" value="" style="group" vertex="1" connectable="0" parent="1">
          <mxGeometry x="510" y="330" width="180" height="160" as="geometry" />
        </mxCell>
        <mxCell id="RuhV8H8YjiO3MwO7PlEk-28" style="edgeStyle=orthogonalEdgeStyle;rounded=0;orthogonalLoop=1;jettySize=auto;html=1;" edge="1" parent="RuhV8H8YjiO3MwO7PlEk-16" source="RuhV8H8YjiO3MwO7PlEk-13" target="RuhV8H8YjiO3MwO7PlEk-14">
          <mxGeometry relative="1" as="geometry" />
        </mxCell>
        <mxCell id="RuhV8H8YjiO3MwO7PlEk-13" value="Usluga" style="rounded=0;whiteSpace=wrap;html=1;" vertex="1" parent="RuhV8H8YjiO3MwO7PlEk-16">
          <mxGeometry width="180" height="30" as="geometry" />
        </mxCell>
        <mxCell id="RuhV8H8YjiO3MwO7PlEk-14" value="id_usluga&lt;div&gt;naziv&lt;/div&gt;&lt;div&gt;cijena&lt;/div&gt;&lt;div&gt;trajanje_u_minutama&lt;/div&gt;&lt;div&gt;aktivna&lt;/div&gt;" style="rounded=0;whiteSpace=wrap;html=1;" vertex="1" parent="RuhV8H8YjiO3MwO7PlEk-16">
          <mxGeometry y="30" width="180" height="100" as="geometry" />
        </mxCell>
        <mxCell id="RuhV8H8YjiO3MwO7PlEk-15" value="" style="rounded=0;whiteSpace=wrap;html=1;" vertex="1" parent="RuhV8H8YjiO3MwO7PlEk-16">
          <mxGeometry y="130" width="180" height="30" as="geometry" />
        </mxCell>
        <mxCell id="RuhV8H8YjiO3MwO7PlEk-17" value="Račun" style="rounded=0;whiteSpace=wrap;html=1;" vertex="1" parent="1">
          <mxGeometry x="70" y="590" width="210" height="30" as="geometry" />
        </mxCell>
        <mxCell id="RuhV8H8YjiO3MwO7PlEk-18" value="id_racun&lt;div&gt;broj_racuna&lt;/div&gt;&lt;div&gt;datum_izdavanja&lt;/div&gt;&lt;div&gt;ukupan_iznos&lt;/div&gt;" style="rounded=0;whiteSpace=wrap;html=1;" vertex="1" parent="1">
          <mxGeometry x="70" y="620" width="210" height="90" as="geometry" />
        </mxCell>
        <mxCell id="RuhV8H8YjiO3MwO7PlEk-19" value="generirajRacun ()&lt;div&gt;oznaciKaoPlacen ()&lt;/div&gt;" style="rounded=0;whiteSpace=wrap;html=1;" vertex="1" parent="1">
          <mxGeometry x="70" y="710" width="210" height="60" as="geometry" />
        </mxCell>
        <mxCell id="RuhV8H8YjiO3MwO7PlEk-23" value="" style="group" vertex="1" connectable="0" parent="1">
          <mxGeometry x="340" y="610" width="160" height="90" as="geometry" />
        </mxCell>
        <mxCell id="RuhV8H8YjiO3MwO7PlEk-20" value="StavkaTermina" style="rounded=0;whiteSpace=wrap;html=1;" vertex="1" parent="RuhV8H8YjiO3MwO7PlEk-23">
          <mxGeometry width="160" height="30" as="geometry" />
        </mxCell>
        <mxCell id="RuhV8H8YjiO3MwO7PlEk-21" value="cijena_usluge" style="rounded=0;whiteSpace=wrap;html=1;" vertex="1" parent="RuhV8H8YjiO3MwO7PlEk-23">
          <mxGeometry y="30" width="160" height="40" as="geometry" />
        </mxCell>
        <mxCell id="RuhV8H8YjiO3MwO7PlEk-22" value="" style="rounded=0;whiteSpace=wrap;html=1;" vertex="1" parent="RuhV8H8YjiO3MwO7PlEk-23">
          <mxGeometry y="70" width="160" height="20" as="geometry" />
        </mxCell>
        <mxCell id="RuhV8H8YjiO3MwO7PlEk-27" value="" style="group" vertex="1" connectable="0" parent="1">
          <mxGeometry x="560" y="570" width="270" height="90" as="geometry" />
        </mxCell>
        <mxCell id="RuhV8H8YjiO3MwO7PlEk-24" value="KompetencijeZaposlenika" style="rounded=0;whiteSpace=wrap;html=1;" vertex="1" parent="RuhV8H8YjiO3MwO7PlEk-27">
          <mxGeometry width="270" height="30" as="geometry" />
        </mxCell>
        <mxCell id="RuhV8H8YjiO3MwO7PlEk-25" value="//Povezuje zaposlenika i uslugu" style="rounded=0;whiteSpace=wrap;html=1;" vertex="1" parent="RuhV8H8YjiO3MwO7PlEk-27">
          <mxGeometry y="30" width="270" height="40" as="geometry" />
        </mxCell>
        <mxCell id="RuhV8H8YjiO3MwO7PlEk-26" value="" style="rounded=0;whiteSpace=wrap;html=1;" vertex="1" parent="RuhV8H8YjiO3MwO7PlEk-27">
          <mxGeometry y="70" width="270" height="20" as="geometry" />
        </mxCell>
        <mxCell id="RuhV8H8YjiO3MwO7PlEk-29" value="" style="endArrow=none;html=1;rounded=0;entryX=0.375;entryY=0.045;entryDx=0;entryDy=0;entryPerimeter=0;" edge="1" parent="1" target="RuhV8H8YjiO3MwO7PlEk-9">
          <mxGeometry width="50" height="50" relative="1" as="geometry">
            <mxPoint x="200" y="250" as="sourcePoint" />
            <mxPoint x="450" y="380" as="targetPoint" />
          </mxGeometry>
        </mxCell>
        <mxCell id="RuhV8H8YjiO3MwO7PlEk-33" value="rezervira" style="edgeLabel;html=1;align=center;verticalAlign=middle;resizable=0;points=[];" vertex="1" connectable="0" parent="RuhV8H8YjiO3MwO7PlEk-29">
          <mxGeometry x="-0.0814" relative="1" as="geometry">
            <mxPoint as="offset" />
          </mxGeometry>
        </mxCell>
        <mxCell id="RuhV8H8YjiO3MwO7PlEk-32" value="" style="endArrow=none;html=1;rounded=0;entryX=0;entryY=1;entryDx=0;entryDy=0;exitX=0.75;exitY=0;exitDx=0;exitDy=0;" edge="1" parent="1" source="RuhV8H8YjiO3MwO7PlEk-9" target="RuhV8H8YjiO3MwO7PlEk-6">
          <mxGeometry width="50" height="50" relative="1" as="geometry">
            <mxPoint x="280" y="340" as="sourcePoint" />
            <mxPoint x="330" y="290" as="targetPoint" />
          </mxGeometry>
        </mxCell>
        <mxCell id="RuhV8H8YjiO3MwO7PlEk-36" value="obavlja" style="edgeLabel;html=1;align=center;verticalAlign=middle;resizable=0;points=[];" vertex="1" connectable="0" parent="RuhV8H8YjiO3MwO7PlEk-32">
          <mxGeometry x="-0.0855" y="-1" relative="1" as="geometry">
            <mxPoint as="offset" />
          </mxGeometry>
        </mxCell>
        <mxCell id="RuhV8H8YjiO3MwO7PlEk-34" value="1" style="text;html=1;align=center;verticalAlign=middle;resizable=0;points=[];autosize=1;strokeColor=none;fillColor=none;" vertex="1" parent="1">
          <mxGeometry x="175" y="248" width="30" height="30" as="geometry" />
        </mxCell>
        <mxCell id="RuhV8H8YjiO3MwO7PlEk-35" value="*" style="text;html=1;align=center;verticalAlign=middle;resizable=0;points=[];autosize=1;strokeColor=none;fillColor=none;" vertex="1" parent="1">
          <mxGeometry x="255" y="288" width="30" height="30" as="geometry" />
        </mxCell>
        <mxCell id="RuhV8H8YjiO3MwO7PlEk-37" value="*" style="text;html=1;align=center;verticalAlign=middle;resizable=0;points=[];autosize=1;strokeColor=none;fillColor=none;" vertex="1" parent="1">
          <mxGeometry x="365" y="288" width="30" height="30" as="geometry" />
        </mxCell>
        <mxCell id="RuhV8H8YjiO3MwO7PlEk-38" value="1" style="text;html=1;align=center;verticalAlign=middle;resizable=0;points=[];autosize=1;strokeColor=none;fillColor=none;" vertex="1" parent="1">
          <mxGeometry x="495" y="168" width="30" height="30" as="geometry" />
        </mxCell>
        <mxCell id="RuhV8H8YjiO3MwO7PlEk-39" value="" style="endArrow=none;html=1;rounded=0;exitX=0.614;exitY=-0.008;exitDx=0;exitDy=0;exitPerimeter=0;entryX=0.056;entryY=0.963;entryDx=0;entryDy=0;entryPerimeter=0;" edge="1" parent="1" source="RuhV8H8YjiO3MwO7PlEk-17" target="RuhV8H8YjiO3MwO7PlEk-11">
          <mxGeometry width="50" height="50" relative="1" as="geometry">
            <mxPoint x="280" y="490" as="sourcePoint" />
            <mxPoint x="200" y="520" as="targetPoint" />
          </mxGeometry>
        </mxCell>
        <mxCell id="RuhV8H8YjiO3MwO7PlEk-40" value="generira" style="edgeLabel;html=1;align=center;verticalAlign=middle;resizable=0;points=[];" vertex="1" connectable="0" parent="RuhV8H8YjiO3MwO7PlEk-39">
          <mxGeometry x="-0.0875" relative="1" as="geometry">
            <mxPoint as="offset" />
          </mxGeometry>
        </mxCell>
        <mxCell id="RuhV8H8YjiO3MwO7PlEk-41" value="1" style="text;html=1;align=center;verticalAlign=middle;resizable=0;points=[];autosize=1;strokeColor=none;fillColor=none;" vertex="1" parent="1">
          <mxGeometry x="165" y="508" width="30" height="30" as="geometry" />
        </mxCell>
        <mxCell id="RuhV8H8YjiO3MwO7PlEk-42" value="1" style="text;html=1;align=center;verticalAlign=middle;resizable=0;points=[];autosize=1;strokeColor=none;fillColor=none;" vertex="1" parent="1">
          <mxGeometry x="205" y="558" width="30" height="30" as="geometry" />
        </mxCell>
        <mxCell id="RuhV8H8YjiO3MwO7PlEk-43" value="" style="endArrow=none;html=1;rounded=0;exitX=0.55;exitY=0.95;exitDx=0;exitDy=0;exitPerimeter=0;entryX=0.204;entryY=0.011;entryDx=0;entryDy=0;entryPerimeter=0;" edge="1" parent="1" source="RuhV8H8YjiO3MwO7PlEk-11" target="RuhV8H8YjiO3MwO7PlEk-20">
          <mxGeometry width="50" height="50" relative="1" as="geometry">
            <mxPoint x="280" y="490" as="sourcePoint" />
            <mxPoint x="330" y="440" as="targetPoint" />
          </mxGeometry>
        </mxCell>
        <mxCell id="RuhV8H8YjiO3MwO7PlEk-44" value="sadrži" style="edgeLabel;html=1;align=center;verticalAlign=middle;resizable=0;points=[];" vertex="1" connectable="0" parent="RuhV8H8YjiO3MwO7PlEk-43">
          <mxGeometry x="0.096" y="1" relative="1" as="geometry">
            <mxPoint as="offset" />
          </mxGeometry>
        </mxCell>
        <mxCell id="RuhV8H8YjiO3MwO7PlEk-45" value="1" style="text;html=1;align=center;verticalAlign=middle;resizable=0;points=[];autosize=1;strokeColor=none;fillColor=none;" vertex="1" parent="1">
          <mxGeometry x="285" y="528" width="30" height="30" as="geometry" />
        </mxCell>
        <mxCell id="RuhV8H8YjiO3MwO7PlEk-46" value="*" style="text;html=1;align=center;verticalAlign=middle;resizable=0;points=[];autosize=1;strokeColor=none;fillColor=none;" vertex="1" parent="1">
          <mxGeometry x="365" y="578" width="30" height="30" as="geometry" />
        </mxCell>
        <mxCell id="RuhV8H8YjiO3MwO7PlEk-47" value="" style="endArrow=none;html=1;rounded=0;exitX=0.699;exitY=0.113;exitDx=0;exitDy=0;exitPerimeter=0;" edge="1" parent="1" source="RuhV8H8YjiO3MwO7PlEk-20">
          <mxGeometry width="50" height="50" relative="1" as="geometry">
            <mxPoint x="460" y="600" as="sourcePoint" />
            <mxPoint x="530" y="490" as="targetPoint" />
          </mxGeometry>
        </mxCell>
        <mxCell id="RuhV8H8YjiO3MwO7PlEk-48" value="je dio" style="edgeLabel;html=1;align=center;verticalAlign=middle;resizable=0;points=[];" vertex="1" connectable="0" parent="RuhV8H8YjiO3MwO7PlEk-47">
          <mxGeometry x="-0.1238" relative="1" as="geometry">
            <mxPoint as="offset" />
          </mxGeometry>
        </mxCell>
        <mxCell id="RuhV8H8YjiO3MwO7PlEk-49" value="1" style="text;html=1;align=center;verticalAlign=middle;resizable=0;points=[];autosize=1;strokeColor=none;fillColor=none;" vertex="1" parent="1">
          <mxGeometry x="475" y="478" width="30" height="30" as="geometry" />
        </mxCell>
        <mxCell id="RuhV8H8YjiO3MwO7PlEk-50" value="*" style="text;html=1;align=center;verticalAlign=middle;resizable=0;points=[];autosize=1;strokeColor=none;fillColor=none;" vertex="1" parent="1">
          <mxGeometry x="475" y="578" width="30" height="30" as="geometry" />
        </mxCell>
        <mxCell id="RuhV8H8YjiO3MwO7PlEk-51" value="" style="endArrow=none;html=1;rounded=0;entryX=0.5;entryY=1;entryDx=0;entryDy=0;exitX=0.279;exitY=-0.052;exitDx=0;exitDy=0;exitPerimeter=0;" edge="1" parent="1" source="RuhV8H8YjiO3MwO7PlEk-24" target="RuhV8H8YjiO3MwO7PlEk-15">
          <mxGeometry width="50" height="50" relative="1" as="geometry">
            <mxPoint x="280" y="490" as="sourcePoint" />
            <mxPoint x="330" y="440" as="targetPoint" />
          </mxGeometry>
        </mxCell>
        <mxCell id="RuhV8H8YjiO3MwO7PlEk-52" value="1" style="text;html=1;align=center;verticalAlign=middle;resizable=0;points=[];autosize=1;strokeColor=none;fillColor=none;" vertex="1" parent="1">
          <mxGeometry x="565" y="488" width="30" height="30" as="geometry" />
        </mxCell>
        <mxCell id="RuhV8H8YjiO3MwO7PlEk-53" value="*" style="text;html=1;align=center;verticalAlign=middle;resizable=0;points=[];autosize=1;strokeColor=none;fillColor=none;" vertex="1" parent="1">
          <mxGeometry x="625" y="548" width="30" height="30" as="geometry" />
        </mxCell>
        <mxCell id="RuhV8H8YjiO3MwO7PlEk-54" value="" style="endArrow=none;html=1;rounded=0;entryX=0.895;entryY=1;entryDx=0;entryDy=0;entryPerimeter=0;" edge="1" parent="1" target="RuhV8H8YjiO3MwO7PlEk-7">
          <mxGeometry width="50" height="50" relative="1" as="geometry">
            <mxPoint x="720" y="570" as="sourcePoint" />
            <mxPoint x="330" y="390" as="targetPoint" />
          </mxGeometry>
        </mxCell>
        <mxCell id="RuhV8H8YjiO3MwO7PlEk-55" value="1" style="text;html=1;align=center;verticalAlign=middle;resizable=0;points=[];autosize=1;strokeColor=none;fillColor=none;" vertex="1" parent="1">
          <mxGeometry x="695" y="238" width="30" height="30" as="geometry" />
        </mxCell>
        <mxCell id="RuhV8H8YjiO3MwO7PlEk-56" value="*" style="text;html=1;align=center;verticalAlign=middle;resizable=0;points=[];autosize=1;strokeColor=none;fillColor=none;" vertex="1" parent="1">
          <mxGeometry x="715" y="538" width="30" height="30" as="geometry" />
        </mxCell>
      </root>
    </mxGraphModel>
  </diagram>
</mxfile>
